<svg height="512" viewBox="0 0 64 64" width="512" xmlns="http://www.w3.org/2000/svg"><g id="mobile-megaphone-shopping-screen"><rect fill="#e8e5fb" height="58" rx="2" width="36" x="14" y="3"/><path d="m14 9h36v44h-36z" fill="#3780ea"/><path d="m12.16 38-1.16 11h-8v-11z" fill="#f3ac3c"/><path d="m12.47 35-.31 3h-9.16v-3z" fill="#f6cc4f"/><path d="m38 42v7h-7l-.74-7z" fill="#f3b1b2"/><path d="m30.26 42 .74 7h-5-12-2-1l1.16-11 .31-3 .53-5h1 3 8 4l.84 8z" fill="#5bcbfa"/><path d="m38 38v4h-7.74l-.42-4z" fill="#f3b1b2"/><path d="m35 17v6l-4-1v-4z" fill="#ec455a"/><path d="m35 16h8v8h-8z" fill="#0622e2"/><path d="m42 24-1 9h-4v-9z" fill="#235182"/><path d="m60.41 18.59a1.955 1.955 0 0 1 .59 1.41 2.006 2.006 0 0 1 -2 2h-2v-4h2a1.955 1.955 0 0 1 1.41.59z" fill="#ec455a"/><path d="m57 11v18l-14-5v-8z" fill="#f6cc4f"/><path d="m30 56h4v2h-4z"/><path d="m59 17h-1v-6a1.014 1.014 0 0 0 -.42-.82 1.035 1.035 0 0 0 -.92-.12l-5.66 2.02v-7.08a3.009 3.009 0 0 0 -3-3h-32a3.009 3.009 0 0 0 -3 3v24a1 1 0 0 0 -.99.9l-.44 4.1h-8.57a1 1 0 0 0 -1 1v14a1 1 0 0 0 1 1h10v9a3.009 3.009 0 0 0 3 3h32a3.009 3.009 0 0 0 3-3v-31.08l5.66 2.02a.994.994 0 0 0 1.34-.94v-6h1a3 3 0 0 0 0-6zm-48.9 31h-6.1v-9h7.05zm1.16-11h-7.26v-1h7.36zm3.74-32a1 1 0 0 1 1-1h32a1 1 0 0 1 1 1v3h-34zm-2.89 43 1.79-17h2.1v3h2v-3h6v3h2v-3h2.1l1.79 17zm5.89-19v-2a3 3 0 0 1 6 0v2zm31 30a1 1 0 0 1 -1 1h-32a1 1 0 0 1 -1-1v-5h34zm0-7h-34v-2h23a1 1 0 0 0 1-1v-11a1 1 0 0 0 -1-1h-7.26l-.75-7.1a1 1 0 0 0 -.99-.9h-3v-2a5 5 0 0 0 -10 0v2h-1v-19h34v2.8l-6.17 2.2h-7.83a1 1 0 0 0 -1 1v.22l-3.24.81a1 1 0 0 0 -.76.97v4a1 1 0 0 0 .76.97l3.24.81v.22a1 1 0 0 0 1 1h1v8a1 1 0 0 0 1 1h4a.989.989 0 0 0 .99-.89l.9-8.09 6.11 2.18zm-17.84-11-.21-2h6.05v2zm5.84 2v5h-5.1l-.53-5zm-1-20v-6h6v6zm4.88 2-.78 7h-2.1v-7zm-6.88-6.72v3.44l-2-.5v-2.44zm22 9.3-12-4.28v-6.6l12-4.28zm3-6.58h-1v-2h1a1 1 0 0 1 0 2z"/></g></svg>